<?xml version="1.0" encoding="utf-8"?>
<!-- Generator: Adobe Illustrator 21.0.0, SVG Export Plug-In . SVG Version: 6.00 Build 0)  -->
<svg version="1.1" id="레이어_1" xmlns="http://www.w3.org/2000/svg" xmlns:xlink="http://www.w3.org/1999/xlink" x="0px"
	 y="0px" viewBox="0 0 50 50" style="enable-background:new 0 0 50 50;" xml:space="preserve">
<style type="text/css">
	.st0{fill:#FFFFFF;}
	.st1{fill:#D00000;}
</style>
<path class="st0" d="M34.4,49.5H15.6C7,49.5,0,42.6,0,34.2V15.3C0,6.9,7,0,15.6,0h18.8C43,0,50,6.9,50,15.3v18.9
	C50,42.6,43,49.5,34.4,49.5z"/>
<g>
	<path class="st1" d="M40.4,15.2H9.6c-1.6,0-2.8-1.3-2.8-2.8l0,0c0-1.6,1.3-2.8,2.8-2.8h30.9c1.6,0,2.8,1.3,2.8,2.8l0,0
		C43.3,13.9,42,15.2,40.4,15.2z"/>
</g>
<g>
	<path class="st1" d="M40.4,28.3H9.6c-1.6,0-2.8-1.3-2.8-2.8l0,0c0-1.6,1.3-2.8,2.8-2.8h30.9c1.6,0,2.8,1.3,2.8,2.8l0,0
		C43.3,27,42,28.3,40.4,28.3z"/>
</g>
<g>
	<path class="st1" d="M40.4,41.4H9.6c-1.6,0-2.8-1.3-2.8-2.8l0,0c0-1.6,1.3-2.8,2.8-2.8h30.9c1.6,0,2.8,1.3,2.8,2.8l0,0
		C43.3,40.1,42,41.4,40.4,41.4z"/>
</g>
<path class="st1" d="M34.4,49.5H15.6C7,49.5,0,42.6,0,34.2V15.3C0,6.9,7,0,15.6,0h18.8C43,0,50,6.9,50,15.3v18.9
	C50,42.6,43,49.5,34.4,49.5z M15.6,2.8c-7,0-12.7,5.6-12.7,12.5v18.9c0,6.9,5.7,12.5,12.7,12.5h18.8c7,0,12.7-5.6,12.7-12.5V15.3
	c0-6.9-5.7-12.5-12.7-12.5C34.4,2.8,15.6,2.8,15.6,2.8z"/>
</svg>
